<?xml version="1.0" encoding="UTF-8" standalone="no"?>
<svg
   version="1.1"
   width="1024"
   height="1024"
   id="svg779"
   sodipodi:docname="favicon.svg"
   inkscape:version="1.4 (e7c3feb1, 2024-10-09)"
   inkscape:export-filename="logo.jpg"
   inkscape:export-xdpi="600"
   inkscape:export-ydpi="600"
   xmlns:inkscape="http://www.inkscape.org/namespaces/inkscape"
   xmlns:sodipodi="http://sodipodi.sourceforge.net/DTD/sodipodi-0.dtd"
   xmlns="http://www.w3.org/2000/svg"
   xmlns:svg="http://www.w3.org/2000/svg">
  <defs
     id="defs783" />
  <sodipodi:namedview
     id="namedview781"
     pagecolor="#ffffff"
     bordercolor="#999999"
     borderopacity="1"
     inkscape:pageshadow="0"
     inkscape:pageopacity="0"
     inkscape:pagecheckerboard="0"
     showgrid="false"
     inkscape:zoom="0.49713894"
     inkscape:cx="545.11924"
     inkscape:cy="488.79695"
     inkscape:window-width="1320"
     inkscape:window-height="759"
     inkscape:window-x="0"
     inkscape:window-y="25"
     inkscape:window-maximized="0"
     inkscape:current-layer="svg779"
     objecttolerance="20"
     inkscape:snap-global="false"
     inkscape:showpageshadow="0"
     inkscape:deskcolor="#d1d1d1" />
  <rect
     style="display:inline;opacity:1;fill:#111920;fill-opacity:1;stroke:none;stroke-width:10;stroke-linecap:round;stroke-opacity:1"
     id="rect2"
     width="1024"
     height="1024"
     x="0"
     y="0"
     inkscape:label="Background"
     rx="150"
     ry="150" />
  <g
     id="g1"
     transform="translate(0,113.38779)">
    <g
       id="g2"
       transform="matrix(2.0030354,0,0,3.9574421,-510.5501,-1265.843)"
       inkscape:label="waves"
       style="stroke:#31bdca;stroke-opacity:1;fill:none">
      <path
         style="fill:none;stroke:#31bdca;stroke-width:10;stroke-linecap:round;stroke-linejoin:miter;stroke-miterlimit:4;stroke-dasharray:none;stroke-opacity:1"
         d="m 315.91342,488.58637 c 19.3233,4.87122 44.92289,3.55534 57.16242,2.16078 15.48981,-1.7649 31.64139,-18.21841 62.71835,-14.4877 34.45035,4.13568 47.63577,24.18964 84.61341,25.42331 44.51229,1.48505 80.95029,-32.69623 111.74946,-32.49723 27.60279,0.17835 54.95974,16.33598 74.49851,15.60729"
         id="path1093-7-3"
         sodipodi:nodetypes="cssssc" />
      <path
         style="fill:none;stroke:#31bdca;stroke-width:10;stroke-linecap:round;stroke-linejoin:miter;stroke-miterlimit:4;stroke-dasharray:none;stroke-opacity:1"
         d="m 304.79491,466.59206 c 19.3233,4.87122 40.15209,6.61261 50.68407,5.39995 30.27964,-3.48642 36.50016,-23.07718 82.96321,-19.34647 34.58639,2.77708 48.43391,26.23055 85.4232,27.04291 30.74579,0.67525 75.34805,-32.89674 106.0809,-34.92662 34.08114,-2.25103 70.34583,20.38495 93.93357,18.84646"
         id="path1093-7-70"
         sodipodi:nodetypes="cssssc" />
      <path
         style="fill:none;stroke:#31bdca;stroke-width:10;stroke-linecap:round;stroke-linejoin:miter;stroke-miterlimit:4;stroke-dasharray:none;stroke-opacity:1"
         d="m 274.52381,448.24916 c 24.99186,-8.08549 48.25003,0.13426 81.45625,0.54119 30.47741,0.37349 38.92955,-23.07718 85.3926,-19.34647 34.58639,2.77708 50.86329,26.23055 87.85258,27.04291 30.74579,0.67525 69.61317,-33.50603 100.41234,-33.30703 27.60279,0.17835 81.68295,26.8633 119.03719,13.1779"
         id="path1093-7-2-2"
         sodipodi:nodetypes="cssssc" />
      <path
         style="fill:none;stroke:#31bdca;stroke-width:10;stroke-linecap:round;stroke-linejoin:miter;stroke-miterlimit:4;stroke-dasharray:none;stroke-opacity:1"
         d="m 272.32576,425.77658 c 24.99186,-8.08549 48.25003,0.13426 81.45625,0.54119 30.47741,0.37349 38.92955,-23.07718 85.3926,-19.34647 34.58639,2.77708 50.86329,26.23055 87.85258,27.04291 30.74579,0.67525 69.61317,-33.50603 100.41234,-33.30703 27.60279,0.17835 81.68295,26.8633 119.03719,13.1779"
         id="path1093-7-2"
         sodipodi:nodetypes="cssssc" />
      <path
         style="fill:none;stroke:#31bdca;stroke-width:10;stroke-linecap:round;stroke-linejoin:miter;stroke-miterlimit:4;stroke-dasharray:none;stroke-opacity:1"
         d="m 283.61607,403.9235 c 24.18207,-8.08549 40.15209,0.94405 69.30934,-1.0784 30.40664,-2.10912 39.73934,-24.69677 86.20239,-20.96606 34.58639,2.77708 48.43391,27.04034 85.4232,27.8527 30.74579,0.67525 67.99358,-30.26685 98.79275,-30.06785 27.60279,0.17835 45.24221,11.47721 64.78097,14.79749"
         id="path1093-7-7"
         sodipodi:nodetypes="cssssc" />
      <path
         style="fill:none;stroke:#31bdca;stroke-width:10;stroke-linecap:round;stroke-linejoin:miter;stroke-miterlimit:4;stroke-dasharray:none;stroke-opacity:1"
         d="m 370.01801,353.67346 c 36.83535,-22.59733 90.92782,-15.8863 115.21195,3.48619"
         id="path1093"
         sodipodi:nodetypes="cc" />
      <path
         style="fill:none;stroke:#31bdca;stroke-width:10;stroke-linecap:round;stroke-linejoin:miter;stroke-miterlimit:4;stroke-dasharray:none;stroke-opacity:1"
         d="m 313.40098,375.38739 c 19.3233,4.87122 32.05415,4.18323 42.58613,2.97057 30.27964,-3.48642 36.50016,-23.07718 82.96321,-19.34647 34.58639,2.77708 48.43391,27.04034 85.4232,27.8527 30.74579,0.67525 67.99358,-30.26685 98.79275,-30.06785 27.60279,0.17835 39.57365,11.47721 58.30262,18.03667"
         id="path1093-7"
         sodipodi:nodetypes="cssssc" />
    </g>
  </g>
</svg>
